<?xml version="1.0" standalone="no"?>
<!DOCTYPE svg PUBLIC "-//W3C//DTD SVG 20010904//EN"
 "http://www.w3.org/TR/2001/REC-SVG-20010904/DTD/svg10.dtd">
<svg version="1.0" xmlns="http://www.w3.org/2000/svg"
 width="864.000000pt" height="580.000000pt" viewBox="0 0 864.000000 580.000000"
 preserveAspectRatio="xMidYMid meet">

<g transform="translate(0.000000,580.000000) scale(0.100000,-0.100000)"
fill="#000000" stroke="none">
<path d="M2566 5723 c-69 -163 -164 -319 -391 -644 -180 -257 -269 -408 -350
-593 -73 -169 -97 -275 -99 -431 0 -71 3 -151 7 -178 8 -43 13 -50 67 -87 32
-22 61 -40 63 -40 2 0 7 35 10 78 22 276 293 658 704 990 l81 66 8 116 c13
208 -24 669 -63 768 -8 20 -12 15 -37 -45z"/>
<path d="M3340 5401 c-101 -113 -226 -223 -465 -409 -278 -216 -353 -279 -483
-406 -242 -236 -396 -460 -451 -657 -25 -89 -27 -194 -6 -246 8 -20 14 -38 12
-39 -2 -2 -84 49 -183 114 -221 145 -305 194 -459 265 -336 155 -709 227
-1025 198 -74 -7 -162 -18 -194 -24 l-60 -13 111 -12 c312 -35 545 -145 763
-362 95 -94 164 -180 320 -395 235 -326 336 -437 467 -513 134 -79 291 -111
653 -132 252 -15 347 -36 542 -120 108 -46 145 -71 180 -119 56 -79 117 -265
183 -561 20 -90 38 -166 41 -169 10 -11 3 188 -11 288 -19 133 -65 347 -99
455 l-25 79 24 71 c115 348 -90 589 -550 645 -49 6 -115 11 -145 11 l-55 0 52
29 c307 169 592 643 789 1311 82 278 161 671 152 762 l-3 33 -75 -84z"/>
<path d="M7449 2588 c-159 -165 -364 -573 -540 -1080 -37 -109 -72 -205 -77
-215 -10 -17 -173 -79 -302 -115 -43 -12 -123 -23 -189 -27 -147 -8 -150 -12
-98 -116 44 -90 47 -139 13 -216 -39 -88 -95 -125 -163 -107 -110 29 -74 301
65 492 26 35 50 55 89 72 43 20 53 28 53 49 0 31 -31 48 -71 40 -17 -4 -60
-33 -97 -65 -61 -54 -281 -230 -442 -356 -212 -165 -416 -261 -577 -271 -106
-7 -161 16 -192 81 -27 55 -26 93 5 201 43 148 103 253 208 364 95 99 161 124
206 76 32 -34 31 -111 -4 -188 -14 -32 -26 -64 -26 -71 0 -23 27 -26 54 -5 68
53 108 225 69 299 -38 72 -150 101 -238 61 -48 -22 -148 -119 -210 -205 -40
-56 -144 -158 -314 -310 -70 -62 -142 -100 -171 -91 -33 10 -58 94 -75 244
-21 198 -51 251 -131 238 -92 -15 -282 -222 -437 -476 l-52 -86 -3 42 c-3 34
21 104 129 380 72 186 132 351 133 367 1 35 -25 56 -51 40 -26 -16 -71 -103
-120 -233 -37 -96 -52 -124 -96 -171 -29 -30 -95 -107 -148 -170 -107 -127
-264 -283 -349 -347 -84 -63 -179 -76 -193 -26 -17 60 -17 109 3 214 33 182
50 248 91 347 42 103 41 132 -7 132 -18 0 -32 -12 -55 -47 -16 -27 -33 -59
-36 -72 -10 -40 -330 -458 -375 -491 -52 -38 -97 -46 -136 -26 -78 40 -113
141 -157 458 -30 216 -46 277 -83 319 -50 55 -139 52 -217 -9 -65 -50 -237
-247 -383 -439 -136 -178 -181 -226 -208 -221 -55 10 -13 231 136 723 44 143
91 309 106 369 73 308 -4 412 -201 271 -297 -211 -627 -684 -918 -1315 -125
-271 -247 -538 -275 -602 -15 -35 -26 -48 -41 -48 -26 0 -26 14 -6 153 46 306
93 487 278 1062 80 248 179 561 221 697 42 136 85 271 97 299 27 70 20 101
-24 97 -25 -2 -36 -11 -53 -43 -20 -36 -295 -892 -431 -1340 -106 -351 -173
-659 -193 -888 -18 -206 3 -299 63 -281 59 18 82 60 365 669 245 525 328 684
473 902 151 224 301 404 427 506 80 66 119 88 140 80 34 -13 -9 -210 -138
-633 -113 -372 -133 -462 -134 -611 -1 -140 8 -170 55 -189 70 -29 131 22 327
274 187 241 296 370 348 412 109 87 130 68 164 -143 50 -309 73 -420 97 -468
56 -114 121 -167 201 -167 99 1 168 55 325 254 34 42 63 75 66 73 2 -3 -2 -45
-9 -95 -28 -194 18 -296 139 -308 41 -4 61 1 117 27 104 49 250 174 390 332
81 93 110 117 85 71 -21 -39 -104 -358 -109 -419 -3 -48 -1 -68 12 -88 39 -60
96 -14 172 138 83 166 182 320 299 467 56 70 158 170 173 170 22 0 31 -32 47
-165 20 -166 42 -232 92 -275 33 -30 41 -32 92 -28 76 6 112 25 218 118 50 44
94 80 97 80 3 0 0 -12 -6 -27 -6 -16 -11 -68 -12 -118 -1 -77 3 -97 25 -140
49 -98 144 -135 304 -121 191 17 407 130 715 373 57 45 105 81 107 80 1 -2 -5
-25 -14 -52 -8 -28 -16 -88 -17 -135 -1 -70 3 -93 22 -130 87 -172 315 -128
391 76 17 45 23 83 24 159 l2 100 90 17 c50 9 134 30 186 47 53 17 101 31 107
31 13 0 32 -53 27 -77 -41 -194 -75 -466 -75 -604 0 -85 27 -179 61 -215 80
-86 180 -3 459 376 90 124 179 245 197 269 l32 43 -6 -114 c-8 -155 13 -214
89 -254 61 -32 165 -4 270 73 95 69 302 282 416 426 103 130 118 162 87 187
-25 21 -60 -5 -141 -106 -171 -212 -371 -413 -469 -469 -60 -34 -107 -40 -136
-16 -22 18 -24 26 -23 113 2 122 43 320 94 450 47 119 49 135 15 144 -42 10
-83 -40 -115 -141 -13 -41 -134 -213 -394 -560 -158 -212 -257 -329 -284 -340
-26 -10 -50 28 -58 91 -18 151 76 720 149 901 13 32 50 101 82 153 308 501
545 975 545 1088 0 16 -8 36 -18 45 -32 29 -67 21 -113 -25z m13 -188 c-8 -36
-315 -619 -323 -614 -15 9 -10 41 20 116 66 165 189 408 248 486 25 33 61 41
55 12z"/>
<path d="M8284 2339 c-54 -21 -116 -75 -141 -124 -25 -48 -29 -156 -8 -212 67
-175 310 -219 434 -78 46 53 63 99 64 171 2 146 -119 266 -265 263 -18 0 -56
-9 -84 -20z m218 -54 c81 -58 121 -182 85 -268 -84 -200 -372 -182 -428 27
-28 103 24 210 126 258 62 29 161 21 217 -17z"/>
<path d="M8280 2105 c0 -113 2 -135 15 -135 10 0 15 11 15 35 0 32 3 35 28 35
20 0 33 -9 51 -35 16 -23 31 -35 47 -35 30 0 30 4 -1 45 l-26 33 31 30 c32 32
39 76 20 113 -17 30 -64 49 -125 49 l-55 0 0 -135z m138 88 c20 -17 26 -37 23
-75 -1 -24 -55 -50 -94 -46 l-32 3 -3 68 -3 67 44 0 c28 0 52 -7 65 -17z"/>
<path d="M3222 1644 c-29 -20 -30 -76 -2 -104 24 -24 32 -25 70 -5 50 26 52
92 4 113 -33 16 -45 15 -72 -4z"/>
<path d="M7674 1650 c-42 -17 -38 -96 5 -119 26 -15 65 1 87 34 21 32 7 71
-32 85 -29 12 -32 12 -60 0z"/>
</g>
</svg>
